inDegrees=yes
name=ik_appendData_table_pitch
DataType=double
version=3
OpenSimVersion=4.5
endheader
time	pelvis_tilt	pelvis_list	pelvis_rotation	pelvis_tx	pelvis_ty	pelvis_tz	hip_flexion_r	hip_adduction_r	hip_rotation_r	knee_angle_r	knee_angle_r_beta	ankle_angle_r	subtalar_angle_r	mtp_angle_r	hip_flexion_l	hip_adduction_l	hip_rotation_l	knee_angle_l	knee_angle_l_beta	ankle_angle_l	subtalar_angle_l	mtp_angle_l	lumbar_extension	lumbar_bending	lumbar_rotation	arm_flex_r	arm_add_r	arm_rot_r	elbow_flex_r	pro_sup_r	wrist_flex_r	wrist_dev_r	arm_flex_l	arm_add_l	arm_rot_l	elbow_flex_l	pro_sup_l	wrist_flex_l	wrist_dev_l
75	-0.7211818653509251	89.9105339741576	-6.233234894918937	0	0.9399999999999999	0	44.77639448804054	-10.00857313180246	0	59.96800195607368	1.046639079975886	-5.000754168110062	0	0	44.77639448804054	-10.00857313180246	0	59.96800195607368	1.046639079975886	-5.000754168110062	0	0	1.151271389759121	0.137399859401628	5.822542790174006	0	-13.09460056450333	0	75.64050754965388	44.98276856584359	0	0	2.390392163093163	-0.1244585376267007	-0.02928523490968407	0.03350805014465438	44.98276856584359	0	0
76	-0.7073300542192084	89.90994628468023	-6.227244510176559	0	0.9399999999999999	0	44.77647176397404	-10.00856281430674	0	59.96801068605613	1.046639232342823	-5.000752985145532	0	0	44.77647176397404	-10.00856281430674	0	59.96801068605613	1.046639232342823	-5.000752985145532	0	0	1.155243968485349	0.145665159822859	5.819447715624861	0	-13.0949381387436	0	75.64028624430026	44.98278498287983	0	0	1.205675759390162	-0.6963011738467679	-0.5381004291162489	0.05178847320120505	44.98278498287983	0	0
77	-0.7179214822375865	89.90931830040728	-6.236192736028248	0	0.9399999999999999	0	44.77652702381699	-10.00855543550869	0	59.96801693237337	1.046639341361625	-5.000752138953995	0	0	44.77652702381699	-10.00855543550869	0	59.96801693237337	1.046639341361625	-5.000752138953995	0	0	1.144859826434605	0.1447037705685239	5.8220684899206	0	-13.09517964548742	0	75.64012798936102	44.9827967224369	0	0	0.04296262134118488	-0.6612139120688441	-0.5614141526167827	0.09791190846544411	44.9827967224369	0	0
78	0.04089671357168111	89.90971800427114	-6.999554122944793	0	0.9399999999999999	0	44.78307873304437	-10.00775764258151	0	59.96875646549663	1.046652248649554	-5.000664750320468	0	0	44.78307873304437	-10.00775764258151	0	59.96875646549663	1.046652248649554	-5.000664750320468	0	0	1.141991884732062	0.1343637577921769	5.82027349517547	0	-13.1240541015555	0	75.62136511288341	44.98410517535074	0	0	0.02440777355034695	-1.242063491222547	-0.5439124073140661	0.1114160782876492	44.98410517535074	0	0
79	0.04692179815736414	89.9097687644565	-6.999975692747165	0	0.9399999999999999	0	44.78313141560551	-10.00775103286964	0	59.96876242699128	1.046652352697263	-5.000664010812987	0	0	44.78313141560551	-10.00775103286964	0	59.96876242699128	1.046652352697263	-5.000664010812987	0	0	1.14352254808917	0.1375265464752782	5.82017375973065	0	-13.12428682760833	0	75.62121423954265	44.98411588090295	0	0	0.02523723072178689	-1.240698582277767	-0.5401772427449492	0.1108338259406884	44.98411588090295	0	0
80	0.04674560086236224	89.9105711417759	-7.005602566844648	0	0.9399999999999999	0	44.78318434615944	-10.00774440514584	0	59.96876842497048	1.046652457381749	-5.000663269623873	0	0	44.78318434615944	-10.00774440514584	0	59.96876842497048	1.046652457381749	-5.000663269623873	0	0	1.140375786763698	0.1479219637570084	5.82081087178342	0	-13.12452089920777	0	75.62106265602515	44.98412661969601	0	0	0.06584646781082105	-0.633119561524666	-0.002835454174663874	0.09625232692927493	44.98412661969601	0	0
81	0.05303783007140825	89.90954485944724	-7.010194805890347	0	0.9399999999999999	0	44.78324558234336	-10.00773674399945	0	59.96877536445253	1.046652578498559	-5.000662413181994	0	0	44.78324558234336	-10.00773674399945	0	59.96877536445253	1.046652578498559	-5.000662413181994	0	0	1.144923680278119	0.1425881088658935	5.819856454738153	0	-13.12479173649666	0	75.62088728669708	44.98413903609526	0	0	0.6494758935823586	-0.6612356075671144	0.007536110839178761	0.06723608161137261	44.98413903609526	0	0
82	0.05844971803619479	89.90939033798267	-7.010847891934005	0	0.9399999999999999	0	44.78329039096012	-10.00773113412704	0	59.96878043658229	1.046652667023924	-5.00066178607933	0	0	44.78329039096012	-10.00773113412704	0	59.96878043658229	1.046652667023924	-5.00066178607933	0	0	1.146451425717399	0.1463897527658753	5.820535103660658	0	-13.12498977471049	0	75.62075896293058	44.98414812769943	0	0	0.6477537608976139	-0.6505080147110696	0.007828633553065904	0.06721144557516923	44.98414812769943	0	0
83	0.06141817140700386	89.90985745156574	-7.014390408386191	0	0.9399999999999999	0	44.78334246656185	-10.00772458233815	0	59.96878630362944	1.046652769423214	-5.000661053156927	0	0	44.78334246656185	-10.00772458233815	0	59.96878630362944	1.046652769423214	-5.000661053156927	0	0	1.14384639285304	0.1382943671846987	5.820974087536233	0	-13.12521918031493	0	75.62060982775681	44.98415873788374	0	0	0.6652123771269927	-0.08463015384067431	-0.0179510090080714	0.06244171854198678	44.98415873788374	0	0
84	0.06447023716196476	89.90996045327813	-7.018093197087165	0	0.9399999999999999	0	44.78339962469062	-10.00771743256153	0	59.96879277307629	1.046652882336362	-5.000660254257742	0	0	44.78339962469062	-10.00771743256153	0	59.96879277307629	1.046652882336362	-5.000660254257742	0	0	1.1418289670571	0.14011981533327	5.821175711098665	0	-13.12547182196339	0	75.62044613723288	44.98417032839107	0	0	0.6683287971912487	-0.08730226881279249	-0.01871968098955316	0.06235596218964385	44.98417032839107	0	0
85	0.06780447634337695	89.90995599420438	-7.021514066384486	0	0.9399999999999999	0	44.78345682202401	-10.0077102823319	0	59.96879924711201	1.046652995329601	-5.000659455528324	0	0	44.78345682202401	-10.0077102823319	0	59.96879924711201	1.046652995329601	-5.000659455528324	0	0	1.141853279672447	0.1400879132788515	5.82122276263693	0	-13.12572466339159	0	75.62028233444092	44.98418192180511	0	0	0.668300804625397	-0.08736987584346403	-0.01881483491633631	0.06235627764925585	44.98418192180511	0	0
86	0.07117169859260107	89.9099501193736	-7.024903416840973	0	0.9399999999999999	0	44.78351403814181	-10.0077031344974	0	59.96880572364894	1.046653108366495	-5.000658657292721	0	0	44.78351403814181	-10.0077031344974	0	59.96880572364894	1.046653108366495	-5.000658657292721	0	0	1.141857351257379	0.1401317399729823	5.821227379066532	0	-13.12597762059039	0	75.62011847786134	44.98419351358896	0	0	0.6683209392614566	-0.08745112591809073	-0.01882667161504096	0.0623564761156284	44.98419351358896	0	0
87	0.07455429006675236	89.90995355736189	-7.028275602971945	0	0.9399999999999999	0	44.78357119780544	-10.00769599843769	0	59.96881219415975	1.046653221298213	-5.000657860597609	0	0	44.78357119780544	-10.00769599843769	0	59.96881219415975	1.046653221298213	-5.000657860597609	0	0	1.141841916875007	0.140084209505737	5.821229274960966	0	-13.12623036060764	0	75.61995478296389	44.98420508852384	0	0	0.6682991448569735	-0.08736166838211555	-0.01882784738937497	0.06235627633895844	44.98420508852384	0	0
88	0.08113807057192518	89.90982389751235	-7.032200220603353	0	0.9399999999999999	0	44.78361963455765	-10.00768996911741	0	59.96881768795987	1.046653317183113	-5.000657187934399	0	0	44.78361963455765	-10.00768996911741	0	59.96881768795987	1.046653317183113	-5.000657187934399	0	0	1.144661874321721	0.1451371031147885	5.821289985790821	0	-13.12644484703649	0	75.61981606893838	44.98421487400589	0	0	1.247974758829146	-0.09102066014529148	-0.02367862775242486	0.04857451774817621	44.98421487400589	0	0
89	0.08200580855866955	89.90949316809053	-7.037757781104784	0	0.9399999999999999	0	44.78368071467338	-10.00768235271651	0	59.96882460287178	1.046653437871093	-5.000656338051383	0	0	44.78368071467338	-10.00768235271651	0	59.96882460287178	1.046653437871093	-5.000656338051383	0	0	1.143812413041816	0.138691875043735	5.820089981211724	0	-13.12671498339313	0	75.6196411465927	44.98422723243002	0	0	1.247661731395731	-0.1039021213035282	-0.02196866035433728	0.0485222024563309	44.98422723243002	0	0
90	0.08600379882601016	89.90934336542495	-7.03972911876226	0	0.9399999999999999	0	44.78372403213979	-10.00767695767442	0	59.96882950902546	1.046653523499629	-5.000655736279326	0	0	44.78372403213979	-10.00767695767442	0	59.96882950902546	1.046653523499629	-5.000655736279326	0	0	1.146719763960378	0.1478319416711351	5.820125434819599	0	-13.1269066377477	0	75.61951709325633	44.98423598904328	0	0	1.246163056099934	-0.09353975390699225	-0.02224253077766544	0.04851869374328818	44.98423598904328	0	0
91	0.0902626329607813	89.90921357302547	-7.041249601543408	0	0.9399999999999999	0	44.78376442134352	-10.00767193060777	0	59.9688340842236	1.0466536033519	-5.00065517568956	0	0	44.78376442134352	-10.00767193060777	0	59.9688340842236	1.0466536033519	-5.00065517568956	0	0	1.147472544671915	0.1533546998726598	5.821092049435401	0	-13.12708536755289	0	75.61940142593659	44.98424414982782	0	0	1.244958704195653	-0.08848121420487685	-0.02322108710089513	0.04848644201246755	44.98424414982782	0	0
92	0.09416577432519616	89.90973114715339	-7.043015209959773	0	0.9399999999999999	0	44.78380607356572	-10.00766674783657	0	59.96883880204265	1.046653685693376	-5.000654597830808	0	0	44.78380607356572	-10.00766674783657	0	59.96883880204265	1.046653685693376	-5.000654597830808	0	0	1.146359554634933	0.1479434021492722	5.822012630884624	0	-13.12726968536455	0	75.61928214156404	44.98425256425585	0	0	1.245481964325568	-0.08920906597762092	-0.02368597808147431	0.04845882946162872	44.98425256425585	0	0
93	0.09564855758290759	89.90927037254598	-7.046705661937603	0	0.9399999999999999	0	44.78384856896991	-10.0076614628543	0	59.96884361570169	1.046653769707576	-5.000654008700101	0	0	44.78384856896991	-10.0076614628543	0	59.96884361570169	1.046653769707576	-5.000654008700101	0	0	1.142042005982441	0.1475343751349014	5.821202440502458	0	-13.12745775590287	0	75.61916044247656	44.98426114587961	0	0	1.240047890432424	-0.08617978186982839	-0.02334535047832566	0.04848911987268729	44.98426114587961	0	0
94	0.09967968437753423	89.90971051224848	-7.048439996337317	0	0.9399999999999999	0	44.78388988820246	-10.00765632700416	0	59.96884829655384	1.046653851403857	-5.000653436321443	0	0	44.78388988820246	-10.00765632700416	0	59.96884829655384	1.046653851403857	-5.000653436321443	0	0	1.146453675461696	0.1486569406175328	5.822022345886012	0	-13.1276406447833	0	75.61904211173486	44.98426948664793	0	0	1.24532132359501	-0.08894394435640744	-0.02371620403571826	0.04846343717439321	44.98426948664793	0	0
95	0.09948668530700669	89.9095844753414	-7.054346555227968	0	0.9399999999999999	0	44.78394389329849	-10.0076496146637	0	59.96885441285725	1.04665395815349	-5.000652688331532	0	0	44.78394389329849	-10.0076496146637	0	59.96885441285725	1.04665395815349	-5.000652688331532	0	0	1.138880125133245	0.138783361707926	5.820135609724494	0	-13.12787965420289	0	75.61888745099454	44.98428038832693	0	0	1.243560994815291	-0.1014345546433394	-0.02196894974275992	0.04848145612036303	44.98428038832693	0	0
96	0.1032060865231735	89.90925855427548	-7.056617683788113	0	0.9399999999999999	0	44.78398622226743	-10.00764435904909	0	59.96885920848445	1.046654041852974	-5.000652102881373	0	0	44.78398622226743	-10.00764435904909	0	59.96885920848445	1.046654041852974	-5.000652102881373	0	0	1.146823652179774	0.1494310903653908	5.820210117637798	0	-13.12806705093444	0	75.61876622856109	44.9842889263482	0	0	1.245806851095299	-0.09250534225465513	-0.02237896623866777	0.04851354453326238	44.9842889263482	0	0
97	0.1076441402605761	89.90924149036185	-7.057936329392996	0	0.9399999999999999	0	44.78402612294897	-10.00763940791459	0	59.96886372956167	1.046654120760657	-5.000651551477404	0	0	44.78402612294897	-10.00763940791459	0	59.96886372956167	1.046654120760657	-5.000651551477404	0	0	1.147534987567407	0.1540884526252889	5.821343422455471	0	-13.12824372430065	0	75.61865196030409	44.9842969710505	0	0	1.244777400988052	-0.08760192279505544	-0.02343684960594844	0.04848051243022002	44.9842969710505	0	0
98	0.1082534808613075	89.90950302696712	-7.063244455964176	0	0.9399999999999999	0	44.78407800252258	-10.00763297000528	0	59.96886960585374	1.046654223321302	-5.00065083455961	0	0	44.78407800252258	-10.00763297000528	0	59.96886960585374	1.046654223321302	-5.00065083455961	0	0	1.145154855982174	0.1405566615857316	5.820058266349233	0	-13.12847339547499	0	75.61850338668833	44.98430743192265	0	0	1.248105717890749	-0.1001796138093823	-0.02193647652016989	0.04851115305562005	44.98430743192265	0	0
